Coordinates
version=1
nRows=14
nColumns=33
inDegrees=yes

Units are S.I. units (second, meters, Newtons, ...)
Angles are in degrees.

endheader
time	ground_thorax_rot_x	ground_thorax_rot_y	ground_thorax_rot_z	ground_thorax_tx	ground_thorax_ty	ground_thorax_tz	clav_prot_r	clav_elev_r	scapula_abduction_r	scapula_elevation_r	scapula_upward_rot_r	scapula_winging_r	shoulder_elv_r	plane_of_elev_r	axial_rot_r	elbow_flexion_r	pro_sup_r	wrist_flex_r	wrist_dev_r	clav_prot_l	clav_elev_l	scapula_abduction_l	scapula_elevation_l	scapula_upward_rot_l	scapula_winging_l	shoulder_elv_l	plane_of_elev_l	axial_rot_l	elbow_flexion_l	pro_sup_l	wrist_flex_l	wrist_dev_l	
5.2400	39.091703	6.162177	7.551250	-246.260073	849.929907	7.352331	13.124576	35.892405	35.558964	45.000000	-45.000000	2075.646769	-3704.072463	143.169943	180.000000	1813.454982	58.437362	23.647480	5.876382	8.854694	-45.000000	-38.605153	45.000000	-45.000000	-2421.908883	-450.895870	135.612338	-180.000000	372.510960	49.373554	2.975062	-22.600550	
5.2500	39.103031	6.173681	7.587940	-245.894009	849.571405	7.350679	13.060555	35.891335	35.563764	45.000000	-45.000000	2075.660419	-3704.053451	143.123420	180.000000	1813.471842	58.470113	23.617523	5.874430	8.909067	-45.000000	-38.638482	45.000000	-45.000000	-2421.940878	-450.932163	135.601388	-180.000000	372.497138	49.327851	2.973302	-22.592526	
5.2600	39.111345	6.229655	7.672635	-245.511260	849.214924	7.348308	12.927860	35.933843	35.597388	45.000000	-45.000000	2075.687702	-3704.051516	143.148881	180.000000	1813.490450	58.483005	23.521664	5.860995	8.962038	-45.000000	-38.689951	45.000000	-45.000000	-2421.990820	-450.987402	135.637705	-180.000000	372.459757	49.280951	2.968618	-22.585888	
5.2700	39.110692	6.265392	7.730087	-245.093887	848.863656	7.345599	12.885005	35.956345	35.627522	45.000000	-45.000000	2075.704488	-3704.059515	143.147076	180.000000	1813.510644	58.462018	23.484249	5.859808	8.990280	-45.000000	-38.719886	45.000000	-45.000000	-2422.029204	-451.002596	135.641917	-180.000000	372.459941	49.222383	2.965676	-22.577308	
5.2800	39.104793	6.306290	7.787526	-244.637404	848.515321	7.341542	12.876745	35.965126	35.661767	45.000000	-45.000000	2075.710551	-3704.072844	143.137423	180.000000	1813.523738	58.406180	23.471728	5.870389	9.005348	-45.000000	-38.740690	45.000000	-45.000000	-2422.063124	-450.998755	135.631793	-180.000000	372.469339	49.152809	2.964081	-22.564930	
5.2900	39.095284	6.354995	7.846286	-244.133952	848.167172	7.335253	12.888129	35.981497	35.700657	45.000000	-45.000000	2075.716032	-3704.086561	143.136391	180.000000	1813.536254	58.310821	23.465585	5.886430	9.010065	-45.000000	-38.757290	45.000000	-45.000000	-2422.101532	-450.979638	135.616042	-180.000000	372.489449	49.068517	2.964390	-22.552182	
5.3000	39.083699	6.414354	7.918464	-243.578421	847.814550	7.325635	12.914180	35.973896	35.736487	45.000000	-45.000000	2075.707264	-3704.093046	143.115539	180.000000	1813.536297	58.181634	23.479303	5.918043	9.013654	-45.000000	-38.764936	45.000000	-45.000000	-2422.133363	-450.956460	135.585198	-180.000000	372.506398	48.966731	2.968235	-22.533868	
5.3100	39.070151	6.486958	8.006583	-242.965816	847.451766	7.311631	12.920112	35.986606	35.767972	45.000000	-45.000000	2075.711617	-3704.083357	143.110790	180.000000	1813.541452	58.018821	23.477930	5.949141	9.020998	-45.000000	-38.779278	45.000000	-45.000000	-2422.174002	-450.936566	135.562343	-180.000000	372.522759	48.842520	2.977072	-22.518090	
5.3200	39.054473	6.559201	8.105177	-242.289966	847.073435	7.292466	12.926373	35.969026	35.790139	45.000000	-45.000000	2075.703191	-3704.061932	143.074031	180.000000	1813.542867	57.829471	23.495380	5.994455	9.031998	-45.000000	-38.787457	45.000000	-45.000000	-2422.207517	-450.917818	135.523334	-180.000000	372.537107	48.689087	2.993704	-22.500788	
5.3300	39.033224	6.638677	8.219921	-241.543414	846.674676	7.267592	12.916910	35.972037	35.803611	45.000000	-45.000000	2075.712262	-3704.025785	143.048396	180.000000	1813.557909	57.611198	23.501333	6.037008	9.043125	-45.000000	-38.798906	45.000000	-45.000000	-2422.250071	-450.896396	135.492022	-180.000000	372.554337	48.498704	3.019791	-22.488512	
5.3400	39.006674	6.714174	8.348173	-240.718429	846.251517	7.236761	12.906520	35.944056	35.827885	45.000000	-45.000000	2075.705806	-3704.001213	142.999519	180.000000	1813.566753	57.370377	23.519956	6.094056	9.052804	-45.000000	-38.799687	45.000000	-45.000000	-2422.290336	-450.868055	135.447912	-180.000000	372.563521	48.264678	3.057838	-22.475348	
5.3500	38.973875	6.786334	8.478166	-239.807363	845.800644	7.200057	12.886370	35.940922	35.870639	45.000000	-45.000000	2075.711678	-3703.987417	142.971445	180.000000	1813.583539	57.100469	23.528553	6.150299	9.055287	-45.000000	-38.806607	45.000000	-45.000000	-2422.342826	-450.825119	135.403551	-180.000000	372.572160	47.975626	3.109445	-22.467378	
5.3600	38.938963	6.852878	8.606206	-238.803230	845.319302	7.157896	12.869755	35.918159	35.937325	45.000000	-45.000000	2075.703468	-3703.995603	142.934213	180.000000	1813.594108	56.803903	23.547832	6.222104	9.051697	-45.000000	-38.814509	45.000000	-45.000000	-2422.399009	-450.771908	135.342289	-180.000000	372.577446	47.623038	3.176451	-22.460798	
5.3700	38.900658	6.926094	8.743439	-237.700231	844.805056	7.110987	12.859031	35.924339	36.023633	45.000000	-45.000000	2075.703946	-3704.016395	142.918236	180.000000	1813.605268	56.474705	23.560842	6.298023	9.039508	-45.000000	-38.824701	45.000000	-45.000000	-2422.466505	-450.710356	135.278709	-180.000000	372.577748	47.197198	3.259201	-22.455348	
